<svg width="404" height="147" viewBox="0 0 404 147" fill="none" xmlns="http://www.w3.org/2000/svg">
<g clip-path="url(#clip0_56_324)">
<g filter="url(#filter0_b_56_324)">
<path d="M392 0H14.2938C7.78754 0 2.46647 5.18486 2.29782 11.6889L-2.68077 203.689C-2.85572 210.436 2.56596 216 9.3152 216H392C398.627 216 404 210.627 404 204V169.658V12C404 5.37258 398.627 0 392 0Z" fill="url(#paint0_linear_56_324)" fill-opacity="0.12"/>
</g>
<g filter="url(#filter1_f_56_324)">
<circle cx="181.5" cy="17.5" r="62.5" fill="url(#paint1_linear_56_324)" fill-opacity="0.82"/>
</g>
<g opacity="0.44">
<circle opacity="0.09" cx="21" cy="18" r="57" fill="#71859D"/>
<circle cx="14.4857" cy="13.657" r="50.4857" fill="url(#paint2_linear_56_324)"/>
</g>
<g opacity="0.22">
<circle opacity="0.09" cx="142" cy="93" r="57" fill="#71859D"/>
<circle cx="135.486" cy="88.657" r="50.4857" fill="url(#paint3_linear_56_324)"/>
</g>
<g opacity="0.18">
<circle opacity="0.09" cx="45.5" cy="151.5" r="15.5" fill="#71859D"/>
<circle cx="47.2513" cy="149.614" r="13.7286" fill="url(#paint4_linear_56_324)"/>
</g>
<g opacity="0.18">
<circle opacity="0.09" cx="296.5" cy="65.6143" r="15.5" fill="#71859D"/>
<circle cx="298.251" cy="63.7286" r="13.7286" fill="url(#paint5_linear_56_324)"/>
</g>
<path d="M33 42V29.28H28.08V28H39.4V29.28H34.48V42H33ZM41.1909 42V31.5H42.5509V34.36L42.4109 33.86C42.7043 33.06 43.1976 32.4533 43.8909 32.04C44.5843 31.6133 45.4443 31.4 46.4709 31.4V32.78C46.4176 32.78 46.3643 32.78 46.3109 32.78C46.2576 32.7667 46.2043 32.76 46.1509 32.76C45.0443 32.76 44.1776 33.1 43.5509 33.78C42.9243 34.4467 42.6109 35.4 42.6109 36.64V42H41.1909ZM54.8608 42V39.68L54.8008 39.3V35.42C54.8008 34.5267 54.5474 33.84 54.0408 33.36C53.5474 32.88 52.8074 32.64 51.8208 32.64C51.1408 32.64 50.4941 32.7533 49.8808 32.98C49.2674 33.2067 48.7474 33.5067 48.3208 33.88L47.6808 32.82C48.2141 32.3667 48.8541 32.02 49.6008 31.78C50.3474 31.5267 51.1341 31.4 51.9608 31.4C53.3208 31.4 54.3674 31.74 55.1008 32.42C55.8474 33.0867 56.2208 34.1067 56.2208 35.48V42H54.8608ZM51.2408 42.1C50.4541 42.1 49.7674 41.9733 49.1808 41.72C48.6074 41.4533 48.1674 41.0933 47.8608 40.64C47.5541 40.1733 47.4008 39.64 47.4008 39.04C47.4008 38.4933 47.5274 38 47.7808 37.56C48.0474 37.1067 48.4741 36.7467 49.0608 36.48C49.6608 36.2 50.4608 36.06 51.4608 36.06H55.0808V37.12H51.5008C50.4874 37.12 49.7808 37.3 49.3808 37.66C48.9941 38.02 48.8008 38.4667 48.8008 39C48.8008 39.6 49.0341 40.08 49.5008 40.44C49.9674 40.8 50.6208 40.98 51.4608 40.98C52.2608 40.98 52.9474 40.8 53.5208 40.44C54.1074 40.0667 54.5341 39.5333 54.8008 38.84L55.1208 39.82C54.8541 40.5133 54.3874 41.0667 53.7208 41.48C53.0674 41.8933 52.2408 42.1 51.2408 42.1ZM64.2577 42.1C63.2577 42.1 62.3577 41.8733 61.5577 41.42C60.771 40.9667 60.151 40.34 59.6977 39.54C59.2443 38.7267 59.0177 37.7933 59.0177 36.74C59.0177 35.6733 59.2443 34.74 59.6977 33.94C60.151 33.14 60.771 32.52 61.5577 32.08C62.3577 31.6267 63.2577 31.4 64.2577 31.4C65.1777 31.4 65.9977 31.6067 66.7177 32.02C67.451 32.4333 68.031 33.04 68.4577 33.84C68.8977 34.6267 69.1177 35.5933 69.1177 36.74C69.1177 37.8733 68.9043 38.84 68.4777 39.64C68.051 40.44 67.471 41.0533 66.7377 41.48C66.0177 41.8933 65.191 42.1 64.2577 42.1ZM64.3577 40.84C65.1043 40.84 65.771 40.6733 66.3577 40.34C66.9577 39.9933 67.4243 39.5133 67.7577 38.9C68.1043 38.2733 68.2777 37.5533 68.2777 36.74C68.2777 35.9133 68.1043 35.1933 67.7577 34.58C67.4243 33.9667 66.9577 33.4933 66.3577 33.16C65.771 32.8133 65.1043 32.64 64.3577 32.64C63.6243 32.64 62.9643 32.8133 62.3777 33.16C61.791 33.4933 61.3243 33.9667 60.9777 34.58C60.631 35.1933 60.4577 35.9133 60.4577 36.74C60.4577 37.5533 60.631 38.2733 60.9777 38.9C61.3243 39.5133 61.791 39.9933 62.3777 40.34C62.9643 40.6733 63.6243 40.84 64.3577 40.84ZM68.3177 42V38.84L68.4577 36.72L68.2577 34.6V27.16H69.6777V42H68.3177ZM78.0923 42.1C76.999 42.1 76.039 41.8733 75.2123 41.42C74.3857 40.9533 73.739 40.32 73.2723 39.52C72.8057 38.7067 72.5723 37.78 72.5723 36.74C72.5723 35.7 72.7923 34.78 73.2323 33.98C73.6857 33.18 74.299 32.5533 75.0723 32.1C75.859 31.6333 76.739 31.4 77.7123 31.4C78.699 31.4 79.5723 31.6267 80.3323 32.08C81.1057 32.52 81.7123 33.1467 82.1523 33.96C82.5923 34.76 82.8123 35.6867 82.8123 36.74C82.8123 36.8067 82.8057 36.88 82.7923 36.96C82.7923 37.0267 82.7923 37.1 82.7923 37.18H73.6523V36.12H82.0323L81.4723 36.54C81.4723 35.78 81.3057 35.1067 80.9723 34.52C80.6523 33.92 80.2123 33.4533 79.6523 33.12C79.0923 32.7867 78.4457 32.62 77.7123 32.62C76.9923 32.62 76.3457 32.7867 75.7723 33.12C75.199 33.4533 74.7523 33.92 74.4323 34.52C74.1123 35.12 73.9523 35.8067 73.9523 36.58V36.8C73.9523 37.6 74.1257 38.3067 74.4723 38.92C74.8323 39.52 75.3257 39.9933 75.9523 40.34C76.5923 40.6733 77.319 40.84 78.1323 40.84C78.7723 40.84 79.3657 40.7267 79.9123 40.5C80.4723 40.2733 80.9523 39.9267 81.3523 39.46L82.1523 40.38C81.6857 40.94 81.099 41.3667 80.3923 41.66C79.699 41.9533 78.9323 42.1 78.0923 42.1ZM85.7027 42V31.5H87.0627V34.36L86.9227 33.86C87.216 33.06 87.7093 32.4533 88.4027 32.04C89.096 31.6133 89.956 31.4 90.9827 31.4V32.78C90.9293 32.78 90.876 32.78 90.8227 32.78C90.7693 32.7667 90.716 32.76 90.6627 32.76C89.556 32.76 88.6893 33.1 88.0627 33.78C87.436 34.4467 87.1227 35.4 87.1227 36.64V42H85.7027ZM96.5109 42.1C95.6443 42.1 94.8243 41.98 94.0509 41.74C93.2776 41.4867 92.6709 41.1733 92.2309 40.8L92.8709 39.68C93.2976 40 93.8443 40.28 94.5109 40.52C95.1776 40.7467 95.8776 40.86 96.6109 40.86C97.6109 40.86 98.3309 40.7067 98.7709 40.4C99.2109 40.08 99.4309 39.66 99.4309 39.14C99.4309 38.7533 99.3043 38.4533 99.0509 38.24C98.8109 38.0133 98.4909 37.8467 98.0909 37.74C97.6909 37.62 97.2443 37.52 96.7509 37.44C96.2576 37.36 95.7643 37.2667 95.2709 37.16C94.7909 37.0533 94.3509 36.9 93.9509 36.7C93.5509 36.4867 93.2243 36.2 92.9709 35.84C92.7309 35.48 92.6109 35 92.6109 34.4C92.6109 33.8267 92.7709 33.3133 93.0909 32.86C93.4109 32.4067 93.8776 32.0533 94.4909 31.8C95.1176 31.5333 95.8776 31.4 96.7709 31.4C97.4509 31.4 98.1309 31.4933 98.8109 31.68C99.4909 31.8533 100.051 32.0867 100.491 32.38L99.8709 33.52C99.4043 33.2 98.9043 32.9733 98.3709 32.84C97.8376 32.6933 97.3043 32.62 96.7709 32.62C95.8243 32.62 95.1243 32.7867 94.6709 33.12C94.2309 33.44 94.0109 33.8533 94.0109 34.36C94.0109 34.76 94.1309 35.0733 94.3709 35.3C94.6243 35.5267 94.9509 35.7067 95.3509 35.84C95.7643 35.96 96.2109 36.06 96.6909 36.14C97.1843 36.22 97.6709 36.32 98.1509 36.44C98.6443 36.5467 99.0909 36.7 99.4909 36.9C99.9043 37.0867 100.231 37.36 100.471 37.72C100.724 38.0667 100.851 38.5267 100.851 39.1C100.851 39.7133 100.678 40.2467 100.331 40.7C99.9976 41.14 99.5043 41.4867 98.8509 41.74C98.2109 41.98 97.4309 42.1 96.5109 42.1Z" fill="url(#paint6_linear_56_324)"/>
<path d="M32.635 71.12C31.835 71.12 31.07 71 30.34 70.76C29.61 70.51 29.035 70.19 28.615 69.8L29.17 68.63C29.57 68.98 30.08 69.27 30.7 69.5C31.32 69.73 31.965 69.845 32.635 69.845C33.245 69.845 33.74 69.775 34.12 69.635C34.5 69.495 34.78 69.305 34.96 69.065C35.14 68.815 35.23 68.535 35.23 68.225C35.23 67.865 35.11 67.575 34.87 67.355C34.64 67.135 34.335 66.96 33.955 66.83C33.585 66.69 33.175 66.57 32.725 66.47C32.275 66.37 31.82 66.255 31.36 66.125C30.91 65.985 30.495 65.81 30.115 65.6C29.745 65.39 29.445 65.11 29.215 64.76C28.985 64.4 28.87 63.94 28.87 63.38C28.87 62.84 29.01 62.345 29.29 61.895C29.58 61.435 30.02 61.07 30.61 60.8C31.21 60.52 31.97 60.38 32.89 60.38C33.5 60.38 34.105 60.46 34.705 60.62C35.305 60.78 35.825 61.01 36.265 61.31L35.77 62.51C35.32 62.21 34.845 61.995 34.345 61.865C33.845 61.725 33.36 61.655 32.89 61.655C32.3 61.655 31.815 61.73 31.435 61.88C31.055 62.03 30.775 62.23 30.595 62.48C30.425 62.73 30.34 63.01 30.34 63.32C30.34 63.69 30.455 63.985 30.685 64.205C30.925 64.425 31.23 64.6 31.6 64.73C31.98 64.86 32.395 64.98 32.845 65.09C33.295 65.19 33.745 65.305 34.195 65.435C34.655 65.565 35.07 65.735 35.44 65.945C35.82 66.155 36.125 66.435 36.355 66.785C36.585 67.135 36.7 67.585 36.7 68.135C36.7 68.665 36.555 69.16 36.265 69.62C35.975 70.07 35.525 70.435 34.915 70.715C34.315 70.985 33.555 71.12 32.635 71.12ZM40.2149 71L37.2599 63.05H38.6249L41.2499 70.25H40.6049L43.3349 63.05H44.5499L47.2199 70.25H46.5899L49.2749 63.05H50.5649L47.5949 71H46.2149L43.7099 64.43H44.1299L41.5949 71H40.2149ZM56.7121 71V69.32L56.6371 69.005V66.14C56.6371 65.53 56.4571 65.06 56.0971 64.73C55.7471 64.39 55.2171 64.22 54.5071 64.22C54.0371 64.22 53.5771 64.3 53.1271 64.46C52.6771 64.61 52.2971 64.815 51.9871 65.075L51.3871 63.995C51.7971 63.665 52.2871 63.415 52.8571 63.245C53.4371 63.065 54.0421 62.975 54.6721 62.975C55.7621 62.975 56.6021 63.24 57.1921 63.77C57.7821 64.3 58.0771 65.11 58.0771 66.2V71H56.7121ZM54.1021 71.09C53.5121 71.09 52.9921 70.99 52.5421 70.79C52.1021 70.59 51.7621 70.315 51.5221 69.965C51.2821 69.605 51.1621 69.2 51.1621 68.75C51.1621 68.32 51.2621 67.93 51.4621 67.58C51.6721 67.23 52.0071 66.95 52.4671 66.74C52.9371 66.53 53.5671 66.425 54.3571 66.425H56.8771V67.46H54.4171C53.6971 67.46 53.2121 67.58 52.9621 67.82C52.7121 68.06 52.5871 68.35 52.5871 68.69C52.5871 69.08 52.7421 69.395 53.0521 69.635C53.3621 69.865 53.7921 69.98 54.3421 69.98C54.8821 69.98 55.3521 69.86 55.7521 69.62C56.1621 69.38 56.4571 69.03 56.6371 68.57L56.9221 69.56C56.7321 70.03 56.3971 70.405 55.9171 70.685C55.4371 70.955 54.8321 71.09 54.1021 71.09ZM64.957 71.09C64.297 71.09 63.692 70.94 63.142 70.64C62.602 70.33 62.167 69.875 61.837 69.275C61.517 68.675 61.357 67.925 61.357 67.025C61.357 66.125 61.512 65.375 61.822 64.775C62.142 64.175 62.572 63.725 63.112 63.425C63.662 63.125 64.277 62.975 64.957 62.975C65.737 62.975 66.427 63.145 67.027 63.485C67.627 63.825 68.102 64.3 68.452 64.91C68.802 65.51 68.977 66.215 68.977 67.025C68.977 67.835 68.802 68.545 68.452 69.155C68.102 69.765 67.627 70.24 67.027 70.58C66.427 70.92 65.737 71.09 64.957 71.09ZM60.742 73.91V63.05H62.122V65.195L62.032 67.04L62.182 68.885V73.91H60.742ZM64.837 69.83C65.347 69.83 65.802 69.715 66.202 69.485C66.612 69.255 66.932 68.93 67.162 68.51C67.402 68.08 67.522 67.585 67.522 67.025C67.522 66.455 67.402 65.965 67.162 65.555C66.932 65.135 66.612 64.81 66.202 64.58C65.802 64.35 65.347 64.235 64.837 64.235C64.337 64.235 63.882 64.35 63.472 64.58C63.072 64.81 62.752 65.135 62.512 65.555C62.282 65.965 62.167 66.455 62.167 67.025C62.167 67.585 62.282 68.08 62.512 68.51C62.752 68.93 63.072 69.255 63.472 69.485C63.882 69.715 64.337 69.83 64.837 69.83ZM77.7249 71.09C76.9249 71.09 76.3049 70.875 75.8649 70.445C75.4249 70.015 75.2049 69.4 75.2049 68.6V61.31H76.6449V68.54C76.6449 68.97 76.7499 69.3 76.9599 69.53C77.1799 69.76 77.4899 69.875 77.8899 69.875C78.3399 69.875 78.7149 69.75 79.0149 69.5L79.4649 70.535C79.2449 70.725 78.9799 70.865 78.6699 70.955C78.3699 71.045 78.0549 71.09 77.7249 71.09ZM73.8549 64.235V63.05H78.9249V64.235H73.8549ZM84.3471 71.09C83.5471 71.09 82.8371 70.915 82.2171 70.565C81.5971 70.215 81.1071 69.735 80.7471 69.125C80.3871 68.505 80.2071 67.805 80.2071 67.025C80.2071 66.235 80.3871 65.535 80.7471 64.925C81.1071 64.315 81.5971 63.84 82.2171 63.5C82.8371 63.15 83.5471 62.975 84.3471 62.975C85.1371 62.975 85.8421 63.15 86.4621 63.5C87.0921 63.84 87.5821 64.315 87.9321 64.925C88.2921 65.525 88.4721 66.225 88.4721 67.025C88.4721 67.815 88.2921 68.515 87.9321 69.125C87.5821 69.735 87.0921 70.215 86.4621 70.565C85.8421 70.915 85.1371 71.09 84.3471 71.09ZM84.3471 69.83C84.8571 69.83 85.3121 69.715 85.7121 69.485C86.1221 69.255 86.4421 68.93 86.6721 68.51C86.9021 68.08 87.0171 67.585 87.0171 67.025C87.0171 66.455 86.9021 65.965 86.6721 65.555C86.4421 65.135 86.1221 64.81 85.7121 64.58C85.3121 64.35 84.8571 64.235 84.3471 64.235C83.8371 64.235 83.3821 64.35 82.9821 64.58C82.5821 64.81 82.2621 65.135 82.0221 65.555C81.7821 65.965 81.6621 66.455 81.6621 67.025C81.6621 67.585 81.7821 68.08 82.0221 68.51C82.2621 68.93 82.5821 69.255 82.9821 69.485C83.3821 69.715 83.8371 69.83 84.3471 69.83ZM91.6336 69.08L91.6636 67.235L96.2386 63.05H97.9786L94.4686 66.5L93.6886 67.16L91.6336 69.08ZM90.4636 71V59.87H91.9036V71H90.4636ZM96.5386 71L93.4186 67.13L94.3486 65.975L98.3086 71H96.5386ZM102.925 71.09C102.075 71.09 101.325 70.915 100.675 70.565C100.035 70.215 99.5345 69.735 99.1745 69.125C98.8245 68.515 98.6495 67.815 98.6495 67.025C98.6495 66.235 98.8195 65.535 99.1595 64.925C99.5095 64.315 99.9845 63.84 100.585 63.5C101.195 63.15 101.88 62.975 102.64 62.975C103.41 62.975 104.09 63.145 104.68 63.485C105.27 63.825 105.73 64.305 106.06 64.925C106.4 65.535 106.57 66.25 106.57 67.07C106.57 67.13 106.565 67.2 106.555 67.28C106.555 67.36 106.55 67.435 106.54 67.505H99.7745V66.47H105.79L105.205 66.83C105.215 66.32 105.11 65.865 104.89 65.465C104.67 65.065 104.365 64.755 103.975 64.535C103.595 64.305 103.15 64.19 102.64 64.19C102.14 64.19 101.695 64.305 101.305 64.535C100.915 64.755 100.61 65.07 100.39 65.48C100.17 65.88 100.06 66.34 100.06 66.86V67.1C100.06 67.63 100.18 68.105 100.42 68.525C100.67 68.935 101.015 69.255 101.455 69.485C101.895 69.715 102.4 69.83 102.97 69.83C103.44 69.83 103.865 69.75 104.245 69.59C104.635 69.43 104.975 69.19 105.265 68.87L106.06 69.8C105.7 70.22 105.25 70.54 104.71 70.76C104.18 70.98 103.585 71.09 102.925 71.09ZM112.814 62.975C113.464 62.975 114.034 63.1 114.524 63.35C115.024 63.6 115.414 63.98 115.694 64.49C115.974 65 116.114 65.645 116.114 66.425V71H114.674V66.59C114.674 65.82 114.484 65.24 114.104 64.85C113.734 64.46 113.209 64.265 112.529 64.265C112.019 64.265 111.574 64.365 111.194 64.565C110.814 64.765 110.519 65.06 110.309 65.45C110.109 65.84 110.009 66.325 110.009 66.905V71H108.569V63.05H109.949V65.195L109.724 64.625C109.984 64.105 110.384 63.7 110.924 63.41C111.464 63.12 112.094 62.975 112.814 62.975ZM121.059 71.09C120.399 71.09 119.769 71 119.169 70.82C118.579 70.64 118.114 70.42 117.774 70.16L118.374 69.02C118.714 69.25 119.134 69.445 119.634 69.605C120.134 69.765 120.644 69.845 121.164 69.845C121.834 69.845 122.314 69.75 122.604 69.56C122.904 69.37 123.054 69.105 123.054 68.765C123.054 68.515 122.964 68.32 122.784 68.18C122.604 68.04 122.364 67.935 122.064 67.865C121.774 67.795 121.449 67.735 121.089 67.685C120.729 67.625 120.369 67.555 120.009 67.475C119.649 67.385 119.319 67.265 119.019 67.115C118.719 66.955 118.479 66.74 118.299 66.47C118.119 66.19 118.029 65.82 118.029 65.36C118.029 64.88 118.164 64.46 118.434 64.1C118.704 63.74 119.084 63.465 119.574 63.275C120.074 63.075 120.664 62.975 121.344 62.975C121.864 62.975 122.389 63.04 122.919 63.17C123.459 63.29 123.899 63.465 124.239 63.695L123.624 64.835C123.264 64.595 122.889 64.43 122.499 64.34C122.109 64.25 121.719 64.205 121.329 64.205C120.699 64.205 120.229 64.31 119.919 64.52C119.609 64.72 119.454 64.98 119.454 65.3C119.454 65.57 119.544 65.78 119.724 65.93C119.914 66.07 120.154 66.18 120.444 66.26C120.744 66.34 121.074 66.41 121.434 66.47C121.794 66.52 122.154 66.59 122.514 66.68C122.874 66.76 123.199 66.875 123.489 67.025C123.789 67.175 124.029 67.385 124.209 67.655C124.399 67.925 124.494 68.285 124.494 68.735C124.494 69.215 124.354 69.63 124.074 69.98C123.794 70.33 123.399 70.605 122.889 70.805C122.379 70.995 121.769 71.09 121.059 71.09ZM132.002 71L129.047 63.05H130.412L133.037 70.25H132.392L135.122 63.05H136.337L139.007 70.25H138.377L141.062 63.05H142.352L139.382 71H138.002L135.497 64.43H135.917L133.382 71H132.002ZM143.813 71V63.05H145.253V71H143.813ZM144.533 61.52C144.253 61.52 144.018 61.43 143.828 61.25C143.648 61.07 143.558 60.85 143.558 60.59C143.558 60.32 143.648 60.095 143.828 59.915C144.018 59.735 144.253 59.645 144.533 59.645C144.813 59.645 145.043 59.735 145.223 59.915C145.413 60.085 145.508 60.3 145.508 60.56C145.508 60.83 145.418 61.06 145.238 61.25C145.058 61.43 144.823 61.52 144.533 61.52ZM150.733 71.09C149.933 71.09 149.313 70.875 148.873 70.445C148.433 70.015 148.213 69.4 148.213 68.6V61.31H149.653V68.54C149.653 68.97 149.758 69.3 149.968 69.53C150.188 69.76 150.498 69.875 150.898 69.875C151.348 69.875 151.723 69.75 152.023 69.5L152.473 70.535C152.253 70.725 151.988 70.865 151.678 70.955C151.378 71.045 151.063 71.09 150.733 71.09ZM146.863 64.235V63.05H151.933V64.235H146.863ZM158.459 62.975C159.109 62.975 159.679 63.1 160.169 63.35C160.669 63.6 161.059 63.98 161.339 64.49C161.619 65 161.759 65.645 161.759 66.425V71H160.319V66.59C160.319 65.82 160.129 65.24 159.749 64.85C159.379 64.46 158.854 64.265 158.174 64.265C157.664 64.265 157.219 64.365 156.839 64.565C156.459 64.765 156.164 65.06 155.954 65.45C155.754 65.84 155.654 66.325 155.654 66.905V71H154.214V59.87H155.654V65.195L155.369 64.625C155.629 64.105 156.029 63.7 156.569 63.41C157.109 63.12 157.739 62.975 158.459 62.975ZM178.397 62.975C179.037 62.975 179.602 63.1 180.092 63.35C180.582 63.6 180.962 63.98 181.232 64.49C181.512 65 181.652 65.645 181.652 66.425V71H180.212V66.59C180.212 65.82 180.032 65.24 179.672 64.85C179.312 64.46 178.807 64.265 178.157 64.265C177.677 64.265 177.257 64.365 176.897 64.565C176.537 64.765 176.257 65.06 176.057 65.45C175.867 65.84 175.772 66.325 175.772 66.905V71H174.332V66.59C174.332 65.82 174.152 65.24 173.792 64.85C173.442 64.46 172.937 64.265 172.277 64.265C171.807 64.265 171.392 64.365 171.032 64.565C170.672 64.765 170.392 65.06 170.192 65.45C169.992 65.84 169.892 66.325 169.892 66.905V71H168.452V63.05H169.832V65.165L169.607 64.625C169.857 64.105 170.242 63.7 170.762 63.41C171.282 63.12 171.887 62.975 172.577 62.975C173.337 62.975 173.992 63.165 174.542 63.545C175.092 63.915 175.452 64.48 175.622 65.24L175.037 65C175.277 64.39 175.697 63.9 176.297 63.53C176.897 63.16 177.597 62.975 178.397 62.975ZM184.302 71V63.05H185.742V71H184.302ZM185.022 61.52C184.742 61.52 184.507 61.43 184.317 61.25C184.137 61.07 184.047 60.85 184.047 60.59C184.047 60.32 184.137 60.095 184.317 59.915C184.507 59.735 184.742 59.645 185.022 59.645C185.302 59.645 185.532 59.735 185.712 59.915C185.902 60.085 185.997 60.3 185.997 60.56C185.997 60.83 185.907 61.06 185.727 61.25C185.547 61.43 185.312 61.52 185.022 61.52ZM192.736 62.975C193.386 62.975 193.956 63.1 194.446 63.35C194.946 63.6 195.336 63.98 195.616 64.49C195.896 65 196.036 65.645 196.036 66.425V71H194.596V66.59C194.596 65.82 194.406 65.24 194.026 64.85C193.656 64.46 193.131 64.265 192.451 64.265C191.941 64.265 191.496 64.365 191.116 64.565C190.736 64.765 190.441 65.06 190.231 65.45C190.031 65.84 189.931 66.325 189.931 66.905V71H188.491V63.05H189.871V65.195L189.646 64.625C189.906 64.105 190.306 63.7 190.846 63.41C191.386 63.12 192.016 62.975 192.736 62.975ZM198.701 71V63.05H200.141V71H198.701ZM199.421 61.52C199.141 61.52 198.906 61.43 198.716 61.25C198.536 61.07 198.446 60.85 198.446 60.59C198.446 60.32 198.536 60.095 198.716 59.915C198.906 59.735 199.141 59.645 199.421 59.645C199.701 59.645 199.931 59.735 200.111 59.915C200.301 60.085 200.396 60.3 200.396 60.56C200.396 60.83 200.306 61.06 200.126 61.25C199.946 61.43 199.711 61.52 199.421 61.52ZM212.835 62.975C213.475 62.975 214.04 63.1 214.53 63.35C215.02 63.6 215.4 63.98 215.67 64.49C215.95 65 216.09 65.645 216.09 66.425V71H214.65V66.59C214.65 65.82 214.47 65.24 214.11 64.85C213.75 64.46 213.245 64.265 212.595 64.265C212.115 64.265 211.695 64.365 211.335 64.565C210.975 64.765 210.695 65.06 210.495 65.45C210.305 65.84 210.21 66.325 210.21 66.905V71H208.77V66.59C208.77 65.82 208.59 65.24 208.23 64.85C207.88 64.46 207.375 64.265 206.715 64.265C206.245 64.265 205.83 64.365 205.47 64.565C205.11 64.765 204.83 65.06 204.63 65.45C204.43 65.84 204.33 66.325 204.33 66.905V71H202.89V63.05H204.27V65.165L204.045 64.625C204.295 64.105 204.68 63.7 205.2 63.41C205.72 63.12 206.325 62.975 207.015 62.975C207.775 62.975 208.43 63.165 208.98 63.545C209.53 63.915 209.89 64.48 210.06 65.24L209.475 65C209.715 64.39 210.135 63.9 210.735 63.53C211.335 63.16 212.035 62.975 212.835 62.975ZM223.675 71V69.32L223.6 69.005V66.14C223.6 65.53 223.42 65.06 223.06 64.73C222.71 64.39 222.18 64.22 221.47 64.22C221 64.22 220.54 64.3 220.09 64.46C219.64 64.61 219.26 64.815 218.95 65.075L218.35 63.995C218.76 63.665 219.25 63.415 219.82 63.245C220.4 63.065 221.005 62.975 221.635 62.975C222.725 62.975 223.565 63.24 224.155 63.77C224.745 64.3 225.04 65.11 225.04 66.2V71H223.675ZM221.065 71.09C220.475 71.09 219.955 70.99 219.505 70.79C219.065 70.59 218.725 70.315 218.485 69.965C218.245 69.605 218.125 69.2 218.125 68.75C218.125 68.32 218.225 67.93 218.425 67.58C218.635 67.23 218.97 66.95 219.43 66.74C219.9 66.53 220.53 66.425 221.32 66.425H223.84V67.46H221.38C220.66 67.46 220.175 67.58 219.925 67.82C219.675 68.06 219.55 68.35 219.55 68.69C219.55 69.08 219.705 69.395 220.015 69.635C220.325 69.865 220.755 69.98 221.305 69.98C221.845 69.98 222.315 69.86 222.715 69.62C223.125 69.38 223.42 69.03 223.6 68.57L223.885 69.56C223.695 70.03 223.36 70.405 222.88 70.685C222.4 70.955 221.795 71.09 221.065 71.09ZM227.705 71V59.87H229.145V71H227.705ZM238.203 71.09C237.543 71.09 236.913 71 236.313 70.82C235.723 70.64 235.258 70.42 234.918 70.16L235.518 69.02C235.858 69.25 236.278 69.445 236.778 69.605C237.278 69.765 237.788 69.845 238.308 69.845C238.978 69.845 239.458 69.75 239.748 69.56C240.048 69.37 240.198 69.105 240.198 68.765C240.198 68.515 240.108 68.32 239.928 68.18C239.748 68.04 239.508 67.935 239.208 67.865C238.918 67.795 238.593 67.735 238.233 67.685C237.873 67.625 237.513 67.555 237.153 67.475C236.793 67.385 236.463 67.265 236.163 67.115C235.863 66.955 235.623 66.74 235.443 66.47C235.263 66.19 235.173 65.82 235.173 65.36C235.173 64.88 235.308 64.46 235.578 64.1C235.848 63.74 236.228 63.465 236.718 63.275C237.218 63.075 237.808 62.975 238.488 62.975C239.008 62.975 239.533 63.04 240.063 63.17C240.603 63.29 241.043 63.465 241.383 63.695L240.768 64.835C240.408 64.595 240.033 64.43 239.643 64.34C239.253 64.25 238.863 64.205 238.473 64.205C237.843 64.205 237.373 64.31 237.063 64.52C236.753 64.72 236.598 64.98 236.598 65.3C236.598 65.57 236.688 65.78 236.868 65.93C237.058 66.07 237.298 66.18 237.588 66.26C237.888 66.34 238.218 66.41 238.578 66.47C238.938 66.52 239.298 66.59 239.658 66.68C240.018 66.76 240.343 66.875 240.633 67.025C240.933 67.175 241.173 67.385 241.353 67.655C241.543 67.925 241.638 68.285 241.638 68.735C241.638 69.215 241.498 69.63 241.218 69.98C240.938 70.33 240.543 70.605 240.033 70.805C239.523 70.995 238.913 71.09 238.203 71.09ZM243.437 71V59.87H244.877V71H243.437ZM247.627 71V63.05H249.067V71H247.627ZM248.347 61.52C248.067 61.52 247.832 61.43 247.642 61.25C247.462 61.07 247.372 60.85 247.372 60.59C247.372 60.32 247.462 60.095 247.642 59.915C247.832 59.735 248.067 59.645 248.347 59.645C248.627 59.645 248.857 59.735 249.037 59.915C249.227 60.085 249.322 60.3 249.322 60.56C249.322 60.83 249.232 61.06 249.052 61.25C248.872 61.43 248.637 61.52 248.347 61.52ZM256.031 71.09C255.371 71.09 254.766 70.94 254.216 70.64C253.676 70.33 253.241 69.875 252.911 69.275C252.591 68.675 252.431 67.925 252.431 67.025C252.431 66.125 252.586 65.375 252.896 64.775C253.216 64.175 253.646 63.725 254.186 63.425C254.736 63.125 255.351 62.975 256.031 62.975C256.811 62.975 257.501 63.145 258.101 63.485C258.701 63.825 259.176 64.3 259.526 64.91C259.876 65.51 260.051 66.215 260.051 67.025C260.051 67.835 259.876 68.545 259.526 69.155C259.176 69.765 258.701 70.24 258.101 70.58C257.501 70.92 256.811 71.09 256.031 71.09ZM251.816 73.91V63.05H253.196V65.195L253.106 67.04L253.256 68.885V73.91H251.816ZM255.911 69.83C256.421 69.83 256.876 69.715 257.276 69.485C257.686 69.255 258.006 68.93 258.236 68.51C258.476 68.08 258.596 67.585 258.596 67.025C258.596 66.455 258.476 65.965 258.236 65.555C258.006 65.135 257.686 64.81 257.276 64.58C256.876 64.35 256.421 64.235 255.911 64.235C255.411 64.235 254.956 64.35 254.546 64.58C254.146 64.81 253.826 65.135 253.586 65.555C253.356 65.965 253.241 66.455 253.241 67.025C253.241 67.585 253.356 68.08 253.586 68.51C253.826 68.93 254.146 69.255 254.546 69.485C254.956 69.715 255.411 69.83 255.911 69.83ZM266.256 71.09C265.596 71.09 264.991 70.94 264.441 70.64C263.901 70.33 263.466 69.875 263.136 69.275C262.816 68.675 262.656 67.925 262.656 67.025C262.656 66.125 262.811 65.375 263.121 64.775C263.441 64.175 263.871 63.725 264.411 63.425C264.961 63.125 265.576 62.975 266.256 62.975C267.036 62.975 267.726 63.145 268.326 63.485C268.926 63.825 269.401 64.3 269.751 64.91C270.101 65.51 270.276 66.215 270.276 67.025C270.276 67.835 270.101 68.545 269.751 69.155C269.401 69.765 268.926 70.24 268.326 70.58C267.726 70.92 267.036 71.09 266.256 71.09ZM262.041 73.91V63.05H263.421V65.195L263.331 67.04L263.481 68.885V73.91H262.041ZM266.136 69.83C266.646 69.83 267.101 69.715 267.501 69.485C267.911 69.255 268.231 68.93 268.461 68.51C268.701 68.08 268.821 67.585 268.821 67.025C268.821 66.455 268.701 65.965 268.461 65.555C268.231 65.135 267.911 64.81 267.501 64.58C267.101 64.35 266.646 64.235 266.136 64.235C265.636 64.235 265.181 64.35 264.771 64.58C264.371 64.81 264.051 65.135 263.811 65.555C263.581 65.965 263.466 66.455 263.466 67.025C263.466 67.585 263.581 68.08 263.811 68.51C264.051 68.93 264.371 69.255 264.771 69.485C265.181 69.715 265.636 69.83 266.136 69.83ZM277.127 71V69.32L277.052 69.005V66.14C277.052 65.53 276.872 65.06 276.512 64.73C276.162 64.39 275.632 64.22 274.922 64.22C274.452 64.22 273.992 64.3 273.542 64.46C273.092 64.61 272.712 64.815 272.402 65.075L271.802 63.995C272.212 63.665 272.702 63.415 273.272 63.245C273.852 63.065 274.457 62.975 275.087 62.975C276.177 62.975 277.017 63.24 277.607 63.77C278.197 64.3 278.492 65.11 278.492 66.2V71H277.127ZM274.517 71.09C273.927 71.09 273.407 70.99 272.957 70.79C272.517 70.59 272.177 70.315 271.937 69.965C271.697 69.605 271.577 69.2 271.577 68.75C271.577 68.32 271.677 67.93 271.877 67.58C272.087 67.23 272.422 66.95 272.882 66.74C273.352 66.53 273.982 66.425 274.772 66.425H277.292V67.46H274.832C274.112 67.46 273.627 67.58 273.377 67.82C273.127 68.06 273.002 68.35 273.002 68.69C273.002 69.08 273.157 69.395 273.467 69.635C273.777 69.865 274.207 69.98 274.757 69.98C275.297 69.98 275.767 69.86 276.167 69.62C276.577 69.38 276.872 69.03 277.052 68.57L277.337 69.56C277.147 70.03 276.812 70.405 276.332 70.685C275.852 70.955 275.247 71.09 274.517 71.09ZM284.637 74C283.907 74 283.197 73.895 282.507 73.685C281.827 73.485 281.272 73.195 280.842 72.815L281.532 71.705C281.902 72.025 282.357 72.275 282.897 72.455C283.437 72.645 284.002 72.74 284.592 72.74C285.532 72.74 286.222 72.52 286.662 72.08C287.102 71.64 287.322 70.97 287.322 70.07V68.39L287.472 66.815L287.397 65.225V63.05H288.762V69.92C288.762 71.32 288.412 72.35 287.712 73.01C287.012 73.67 285.987 74 284.637 74ZM284.457 70.67C283.687 70.67 282.997 70.51 282.387 70.19C281.787 69.86 281.307 69.405 280.947 68.825C280.597 68.245 280.422 67.575 280.422 66.815C280.422 66.045 280.597 65.375 280.947 64.805C281.307 64.225 281.787 63.775 282.387 63.455C282.997 63.135 283.687 62.975 284.457 62.975C285.137 62.975 285.757 63.115 286.317 63.395C286.877 63.665 287.322 64.085 287.652 64.655C287.992 65.225 288.162 65.945 288.162 66.815C288.162 67.675 287.992 68.39 287.652 68.96C287.322 69.53 286.877 69.96 286.317 70.25C285.757 70.53 285.137 70.67 284.457 70.67ZM284.622 69.41C285.152 69.41 285.622 69.3 286.032 69.08C286.442 68.86 286.762 68.555 286.992 68.165C287.232 67.775 287.352 67.325 287.352 66.815C287.352 66.305 287.232 65.855 286.992 65.465C286.762 65.075 286.442 64.775 286.032 64.565C285.622 64.345 285.152 64.235 284.622 64.235C284.092 64.235 283.617 64.345 283.197 64.565C282.787 64.775 282.462 65.075 282.222 65.465C281.992 65.855 281.877 66.305 281.877 66.815C281.877 67.325 281.992 67.775 282.222 68.165C282.462 68.555 282.787 68.86 283.197 69.08C283.617 69.3 284.092 69.41 284.622 69.41ZM295.053 71.09C294.203 71.09 293.453 70.915 292.803 70.565C292.163 70.215 291.663 69.735 291.303 69.125C290.953 68.515 290.778 67.815 290.778 67.025C290.778 66.235 290.948 65.535 291.288 64.925C291.638 64.315 292.113 63.84 292.713 63.5C293.323 63.15 294.008 62.975 294.768 62.975C295.538 62.975 296.218 63.145 296.808 63.485C297.398 63.825 297.858 64.305 298.188 64.925C298.528 65.535 298.698 66.25 298.698 67.07C298.698 67.13 298.693 67.2 298.683 67.28C298.683 67.36 298.678 67.435 298.668 67.505H291.903V66.47H297.918L297.333 66.83C297.343 66.32 297.238 65.865 297.018 65.465C296.798 65.065 296.493 64.755 296.103 64.535C295.723 64.305 295.278 64.19 294.768 64.19C294.268 64.19 293.823 64.305 293.433 64.535C293.043 64.755 292.738 65.07 292.518 65.48C292.298 65.88 292.188 66.34 292.188 66.86V67.1C292.188 67.63 292.308 68.105 292.548 68.525C292.798 68.935 293.143 69.255 293.583 69.485C294.023 69.715 294.528 69.83 295.098 69.83C295.568 69.83 295.993 69.75 296.373 69.59C296.763 69.43 297.103 69.19 297.393 68.87L298.188 69.8C297.828 70.22 297.378 70.54 296.838 70.76C296.308 70.98 295.713 71.09 295.053 71.09ZM34.3 89V87.32L34.225 87.005V84.14C34.225 83.53 34.045 83.06 33.685 82.73C33.335 82.39 32.805 82.22 32.095 82.22C31.625 82.22 31.165 82.3 30.715 82.46C30.265 82.61 29.885 82.815 29.575 83.075L28.975 81.995C29.385 81.665 29.875 81.415 30.445 81.245C31.025 81.065 31.63 80.975 32.26 80.975C33.35 80.975 34.19 81.24 34.78 81.77C35.37 82.3 35.665 83.11 35.665 84.2V89H34.3ZM31.69 89.09C31.1 89.09 30.58 88.99 30.13 88.79C29.69 88.59 29.35 88.315 29.11 87.965C28.87 87.605 28.75 87.2 28.75 86.75C28.75 86.32 28.85 85.93 29.05 85.58C29.26 85.23 29.595 84.95 30.055 84.74C30.525 84.53 31.155 84.425 31.945 84.425H34.465V85.46H32.005C31.285 85.46 30.8 85.58 30.55 85.82C30.3 86.06 30.175 86.35 30.175 86.69C30.175 87.08 30.33 87.395 30.64 87.635C30.95 87.865 31.38 87.98 31.93 87.98C32.47 87.98 32.94 87.86 33.34 87.62C33.75 87.38 34.045 87.03 34.225 86.57L34.51 87.56C34.32 88.03 33.985 88.405 33.505 88.685C33.025 88.955 32.42 89.09 31.69 89.09ZM42.5748 80.975C43.2248 80.975 43.7948 81.1 44.2848 81.35C44.7848 81.6 45.1748 81.98 45.4548 82.49C45.7348 83 45.8748 83.645 45.8748 84.425V89H44.4348V84.59C44.4348 83.82 44.2448 83.24 43.8648 82.85C43.4948 82.46 42.9698 82.265 42.2898 82.265C41.7798 82.265 41.3348 82.365 40.9548 82.565C40.5748 82.765 40.2798 83.06 40.0698 83.45C39.8698 83.84 39.7698 84.325 39.7698 84.905V89H38.3298V81.05H39.7098V83.195L39.4848 82.625C39.7448 82.105 40.1448 81.7 40.6848 81.41C41.2248 81.12 41.8548 80.975 42.5748 80.975ZM51.8248 89.09C51.0548 89.09 50.3648 88.92 49.7548 88.58C49.1548 88.24 48.6798 87.765 48.3298 87.155C47.9798 86.545 47.8048 85.835 47.8048 85.025C47.8048 84.215 47.9798 83.51 48.3298 82.91C48.6798 82.3 49.1548 81.825 49.7548 81.485C50.3648 81.145 51.0548 80.975 51.8248 80.975C52.4948 80.975 53.0998 81.125 53.6398 81.425C54.1798 81.725 54.6098 82.175 54.9298 82.775C55.2598 83.375 55.4248 84.125 55.4248 85.025C55.4248 85.925 55.2648 86.675 54.9448 87.275C54.6348 87.875 54.2098 88.33 53.6698 88.64C53.1298 88.94 52.5148 89.09 51.8248 89.09ZM51.9448 87.83C52.4448 87.83 52.8948 87.715 53.2948 87.485C53.7048 87.255 54.0248 86.93 54.2548 86.51C54.4948 86.08 54.6148 85.585 54.6148 85.025C54.6148 84.455 54.4948 83.965 54.2548 83.555C54.0248 83.135 53.7048 82.81 53.2948 82.58C52.8948 82.35 52.4448 82.235 51.9448 82.235C51.4348 82.235 50.9798 82.35 50.5798 82.58C50.1798 82.81 49.8598 83.135 49.6198 83.555C49.3798 83.965 49.2598 84.455 49.2598 85.025C49.2598 85.585 49.3798 86.08 49.6198 86.51C49.8598 86.93 50.1798 87.255 50.5798 87.485C50.9798 87.715 51.4348 87.83 51.9448 87.83ZM54.6598 89V86.855L54.7498 85.01L54.5998 83.165V77.87H56.0398V89H54.6598ZM67.0077 89.09C66.3477 89.09 65.7427 88.94 65.1927 88.64C64.6527 88.33 64.2177 87.875 63.8877 87.275C63.5677 86.675 63.4077 85.925 63.4077 85.025C63.4077 84.125 63.5627 83.375 63.8727 82.775C64.1927 82.175 64.6227 81.725 65.1627 81.425C65.7127 81.125 66.3277 80.975 67.0077 80.975C67.7877 80.975 68.4777 81.145 69.0777 81.485C69.6777 81.825 70.1527 82.3 70.5027 82.91C70.8527 83.51 71.0277 84.215 71.0277 85.025C71.0277 85.835 70.8527 86.545 70.5027 87.155C70.1527 87.765 69.6777 88.24 69.0777 88.58C68.4777 88.92 67.7877 89.09 67.0077 89.09ZM62.7927 91.91V81.05H64.1727V83.195L64.0827 85.04L64.2327 86.885V91.91H62.7927ZM66.8877 87.83C67.3977 87.83 67.8527 87.715 68.2527 87.485C68.6627 87.255 68.9827 86.93 69.2127 86.51C69.4527 86.08 69.5727 85.585 69.5727 85.025C69.5727 84.455 69.4527 83.965 69.2127 83.555C68.9827 83.135 68.6627 82.81 68.2527 82.58C67.8527 82.35 67.3977 82.235 66.8877 82.235C66.3877 82.235 65.9327 82.35 65.5227 82.58C65.1227 82.81 64.8027 83.135 64.5627 83.555C64.3327 83.965 64.2177 84.455 64.2177 85.025C64.2177 85.585 64.3327 86.08 64.5627 86.51C64.8027 86.93 65.1227 87.255 65.5227 87.485C65.9327 87.715 66.3877 87.83 66.8877 87.83ZM77.8791 89V87.32L77.8041 87.005V84.14C77.8041 83.53 77.6241 83.06 77.2641 82.73C76.9141 82.39 76.3841 82.22 75.6741 82.22C75.2041 82.22 74.7441 82.3 74.2941 82.46C73.8441 82.61 73.4641 82.815 73.1541 83.075L72.5541 81.995C72.9641 81.665 73.4541 81.415 74.0241 81.245C74.6041 81.065 75.2091 80.975 75.8391 80.975C76.9291 80.975 77.7691 81.24 78.3591 81.77C78.9491 82.3 79.2441 83.11 79.2441 84.2V89H77.8791ZM75.2691 89.09C74.6791 89.09 74.1591 88.99 73.7091 88.79C73.2691 88.59 72.9291 88.315 72.6891 87.965C72.4491 87.605 72.3291 87.2 72.3291 86.75C72.3291 86.32 72.4291 85.93 72.6291 85.58C72.8391 85.23 73.1741 84.95 73.6341 84.74C74.1041 84.53 74.7341 84.425 75.5241 84.425H78.0441V85.46H75.5841C74.8641 85.46 74.3791 85.58 74.1291 85.82C73.8791 86.06 73.7541 86.35 73.7541 86.69C73.7541 87.08 73.9091 87.395 74.2191 87.635C74.5291 87.865 74.9591 87.98 75.5091 87.98C76.0491 87.98 76.5191 87.86 76.9191 87.62C77.3291 87.38 77.6241 87.03 77.8041 86.57L78.0891 87.56C77.8991 88.03 77.5641 88.405 77.0841 88.685C76.6041 88.955 75.9991 89.09 75.2691 89.09ZM82.1075 92C81.7275 92 81.3575 91.935 80.9975 91.805C80.6375 91.685 80.3275 91.505 80.0675 91.265L80.6825 90.185C80.8825 90.375 81.1025 90.52 81.3425 90.62C81.5825 90.72 81.8375 90.77 82.1075 90.77C82.4575 90.77 82.7475 90.68 82.9775 90.5C83.2075 90.32 83.4225 90 83.6225 89.54L84.1175 88.445L84.2675 88.265L87.3875 81.05H88.7975L84.9425 89.795C84.7125 90.355 84.4525 90.795 84.1625 91.115C83.8825 91.435 83.5725 91.66 83.2325 91.79C82.8925 91.93 82.5175 92 82.1075 92ZM83.9975 89.255L80.3675 81.05H81.8675L84.9575 88.13L83.9975 89.255ZM96.4497 89.09C95.7897 89.09 95.1597 89 94.5597 88.82C93.9697 88.64 93.5047 88.42 93.1647 88.16L93.7647 87.02C94.1047 87.25 94.5247 87.445 95.0247 87.605C95.5247 87.765 96.0347 87.845 96.5547 87.845C97.2247 87.845 97.7047 87.75 97.9947 87.56C98.2947 87.37 98.4447 87.105 98.4447 86.765C98.4447 86.515 98.3547 86.32 98.1747 86.18C97.9947 86.04 97.7547 85.935 97.4547 85.865C97.1647 85.795 96.8397 85.735 96.4797 85.685C96.1197 85.625 95.7597 85.555 95.3997 85.475C95.0397 85.385 94.7097 85.265 94.4097 85.115C94.1097 84.955 93.8697 84.74 93.6897 84.47C93.5097 84.19 93.4197 83.82 93.4197 83.36C93.4197 82.88 93.5547 82.46 93.8247 82.1C94.0947 81.74 94.4747 81.465 94.9647 81.275C95.4647 81.075 96.0547 80.975 96.7347 80.975C97.2547 80.975 97.7797 81.04 98.3097 81.17C98.8497 81.29 99.2897 81.465 99.6297 81.695L99.0147 82.835C98.6547 82.595 98.2797 82.43 97.8897 82.34C97.4997 82.25 97.1097 82.205 96.7197 82.205C96.0897 82.205 95.6197 82.31 95.3097 82.52C94.9997 82.72 94.8447 82.98 94.8447 83.3C94.8447 83.57 94.9347 83.78 95.1147 83.93C95.3047 84.07 95.5447 84.18 95.8347 84.26C96.1347 84.34 96.4647 84.41 96.8247 84.47C97.1847 84.52 97.5447 84.59 97.9047 84.68C98.2647 84.76 98.5897 84.875 98.8797 85.025C99.1797 85.175 99.4197 85.385 99.5997 85.655C99.7897 85.925 99.8847 86.285 99.8847 86.735C99.8847 87.215 99.7447 87.63 99.4647 87.98C99.1847 88.33 98.7897 88.605 98.2797 88.805C97.7697 88.995 97.1597 89.09 96.4497 89.09ZM105.089 89.09C104.289 89.09 103.579 88.915 102.959 88.565C102.339 88.215 101.849 87.735 101.489 87.125C101.129 86.505 100.949 85.805 100.949 85.025C100.949 84.235 101.129 83.535 101.489 82.925C101.849 82.315 102.339 81.84 102.959 81.5C103.579 81.15 104.289 80.975 105.089 80.975C105.879 80.975 106.584 81.15 107.204 81.5C107.834 81.84 108.324 82.315 108.674 82.925C109.034 83.525 109.214 84.225 109.214 85.025C109.214 85.815 109.034 86.515 108.674 87.125C108.324 87.735 107.834 88.215 107.204 88.565C106.584 88.915 105.879 89.09 105.089 89.09ZM105.089 87.83C105.599 87.83 106.054 87.715 106.454 87.485C106.864 87.255 107.184 86.93 107.414 86.51C107.644 86.08 107.759 85.585 107.759 85.025C107.759 84.455 107.644 83.965 107.414 83.555C107.184 83.135 106.864 82.81 106.454 82.58C106.054 82.35 105.599 82.235 105.089 82.235C104.579 82.235 104.124 82.35 103.724 82.58C103.324 82.81 103.004 83.135 102.764 83.555C102.524 83.965 102.404 84.455 102.404 85.025C102.404 85.585 102.524 86.08 102.764 86.51C103.004 86.93 103.324 87.255 103.724 87.485C104.124 87.715 104.579 87.83 105.089 87.83ZM121.151 80.975C121.791 80.975 122.356 81.1 122.846 81.35C123.336 81.6 123.716 81.98 123.986 82.49C124.266 83 124.406 83.645 124.406 84.425V89H122.966V84.59C122.966 83.82 122.786 83.24 122.426 82.85C122.066 82.46 121.561 82.265 120.911 82.265C120.431 82.265 120.011 82.365 119.651 82.565C119.291 82.765 119.011 83.06 118.811 83.45C118.621 83.84 118.526 84.325 118.526 84.905V89H117.086V84.59C117.086 83.82 116.906 83.24 116.546 82.85C116.196 82.46 115.691 82.265 115.031 82.265C114.561 82.265 114.146 82.365 113.786 82.565C113.426 82.765 113.146 83.06 112.946 83.45C112.746 83.84 112.646 84.325 112.646 84.905V89H111.206V81.05H112.586V83.165L112.361 82.625C112.611 82.105 112.996 81.7 113.516 81.41C114.036 81.12 114.641 80.975 115.331 80.975C116.091 80.975 116.746 81.165 117.296 81.545C117.846 81.915 118.206 82.48 118.376 83.24L117.791 83C118.031 82.39 118.451 81.9 119.051 81.53C119.651 81.16 120.351 80.975 121.151 80.975ZM130.595 89.09C129.745 89.09 128.995 88.915 128.345 88.565C127.705 88.215 127.205 87.735 126.845 87.125C126.495 86.515 126.32 85.815 126.32 85.025C126.32 84.235 126.49 83.535 126.83 82.925C127.18 82.315 127.655 81.84 128.255 81.5C128.865 81.15 129.55 80.975 130.31 80.975C131.08 80.975 131.76 81.145 132.35 81.485C132.94 81.825 133.4 82.305 133.73 82.925C134.07 83.535 134.24 84.25 134.24 85.07C134.24 85.13 134.235 85.2 134.225 85.28C134.225 85.36 134.22 85.435 134.21 85.505H127.445V84.47H133.46L132.875 84.83C132.885 84.32 132.78 83.865 132.56 83.465C132.34 83.065 132.035 82.755 131.645 82.535C131.265 82.305 130.82 82.19 130.31 82.19C129.81 82.19 129.365 82.305 128.975 82.535C128.585 82.755 128.28 83.07 128.06 83.48C127.84 83.88 127.73 84.34 127.73 84.86V85.1C127.73 85.63 127.85 86.105 128.09 86.525C128.34 86.935 128.685 87.255 129.125 87.485C129.565 87.715 130.07 87.83 130.64 87.83C131.11 87.83 131.535 87.75 131.915 87.59C132.305 87.43 132.645 87.19 132.935 86.87L133.73 87.8C133.37 88.22 132.92 88.54 132.38 88.76C131.85 88.98 131.255 89.09 130.595 89.09ZM143.673 89.09C142.873 89.09 142.163 88.915 141.543 88.565C140.923 88.215 140.433 87.735 140.073 87.125C139.713 86.505 139.533 85.805 139.533 85.025C139.533 84.235 139.713 83.535 140.073 82.925C140.433 82.315 140.923 81.84 141.543 81.5C142.163 81.15 142.873 80.975 143.673 80.975C144.463 80.975 145.168 81.15 145.788 81.5C146.418 81.84 146.908 82.315 147.258 82.925C147.618 83.525 147.798 84.225 147.798 85.025C147.798 85.815 147.618 86.515 147.258 87.125C146.908 87.735 146.418 88.215 145.788 88.565C145.168 88.915 144.463 89.09 143.673 89.09ZM143.673 87.83C144.183 87.83 144.638 87.715 145.038 87.485C145.448 87.255 145.768 86.93 145.998 86.51C146.228 86.08 146.343 85.585 146.343 85.025C146.343 84.455 146.228 83.965 145.998 83.555C145.768 83.135 145.448 82.81 145.038 82.58C144.638 82.35 144.183 82.235 143.673 82.235C143.163 82.235 142.708 82.35 142.308 82.58C141.908 82.81 141.588 83.135 141.348 83.555C141.108 83.965 140.988 84.455 140.988 85.025C140.988 85.585 141.108 86.08 141.348 86.51C141.588 86.93 141.908 87.255 142.308 87.485C142.708 87.715 143.163 87.83 143.673 87.83ZM150 89V80.345C150 79.565 150.225 78.945 150.675 78.485C151.135 78.015 151.785 77.78 152.625 77.78C152.935 77.78 153.23 77.82 153.51 77.9C153.8 77.97 154.045 78.085 154.245 78.245L153.81 79.34C153.66 79.22 153.49 79.13 153.3 79.07C153.11 79 152.91 78.965 152.7 78.965C152.28 78.965 151.96 79.085 151.74 79.325C151.52 79.555 151.41 79.9 151.41 80.36V81.425L151.44 82.085V89H150ZM148.65 82.235V81.05H153.72V82.235H148.65ZM161.836 89.09C161.036 89.09 160.416 88.875 159.976 88.445C159.536 88.015 159.316 87.4 159.316 86.6V79.31H160.756V86.54C160.756 86.97 160.861 87.3 161.071 87.53C161.291 87.76 161.601 87.875 162.001 87.875C162.451 87.875 162.826 87.75 163.126 87.5L163.576 88.535C163.356 88.725 163.091 88.865 162.781 88.955C162.481 89.045 162.166 89.09 161.836 89.09ZM157.966 82.235V81.05H163.036V82.235H157.966ZM169.562 80.975C170.212 80.975 170.782 81.1 171.272 81.35C171.772 81.6 172.162 81.98 172.442 82.49C172.722 83 172.862 83.645 172.862 84.425V89H171.422V84.59C171.422 83.82 171.232 83.24 170.852 82.85C170.482 82.46 169.957 82.265 169.277 82.265C168.767 82.265 168.322 82.365 167.942 82.565C167.562 82.765 167.267 83.06 167.057 83.45C166.857 83.84 166.757 84.325 166.757 84.905V89H165.317V77.87H166.757V83.195L166.472 82.625C166.732 82.105 167.132 81.7 167.672 81.41C168.212 81.12 168.842 80.975 169.562 80.975ZM179.067 89.09C178.217 89.09 177.467 88.915 176.817 88.565C176.177 88.215 175.677 87.735 175.317 87.125C174.967 86.515 174.792 85.815 174.792 85.025C174.792 84.235 174.962 83.535 175.302 82.925C175.652 82.315 176.127 81.84 176.727 81.5C177.337 81.15 178.022 80.975 178.782 80.975C179.552 80.975 180.232 81.145 180.822 81.485C181.412 81.825 181.872 82.305 182.202 82.925C182.542 83.535 182.712 84.25 182.712 85.07C182.712 85.13 182.707 85.2 182.697 85.28C182.697 85.36 182.692 85.435 182.682 85.505H175.917V84.47H181.932L181.347 84.83C181.357 84.32 181.252 83.865 181.032 83.465C180.812 83.065 180.507 82.755 180.117 82.535C179.737 82.305 179.292 82.19 178.782 82.19C178.282 82.19 177.837 82.305 177.447 82.535C177.057 82.755 176.752 83.07 176.532 83.48C176.312 83.88 176.202 84.34 176.202 84.86V85.1C176.202 85.63 176.322 86.105 176.562 86.525C176.812 86.935 177.157 87.255 177.597 87.485C178.037 87.715 178.542 87.83 179.112 87.83C179.582 87.83 180.007 87.75 180.387 87.59C180.777 87.43 181.117 87.19 181.407 86.87L182.202 87.8C181.842 88.22 181.392 88.54 180.852 88.76C180.322 88.98 179.727 89.09 179.067 89.09ZM188.74 89V77.87H190.18V89H188.74ZM196.334 89.09C195.534 89.09 194.824 88.915 194.204 88.565C193.584 88.215 193.094 87.735 192.734 87.125C192.374 86.505 192.194 85.805 192.194 85.025C192.194 84.235 192.374 83.535 192.734 82.925C193.094 82.315 193.584 81.84 194.204 81.5C194.824 81.15 195.534 80.975 196.334 80.975C197.124 80.975 197.829 81.15 198.449 81.5C199.079 81.84 199.569 82.315 199.919 82.925C200.279 83.525 200.459 84.225 200.459 85.025C200.459 85.815 200.279 86.515 199.919 87.125C199.569 87.735 199.079 88.215 198.449 88.565C197.829 88.915 197.124 89.09 196.334 89.09ZM196.334 87.83C196.844 87.83 197.299 87.715 197.699 87.485C198.109 87.255 198.429 86.93 198.659 86.51C198.889 86.08 199.004 85.585 199.004 85.025C199.004 84.455 198.889 83.965 198.659 83.555C198.429 83.135 198.109 82.81 197.699 82.58C197.299 82.35 196.844 82.235 196.334 82.235C195.824 82.235 195.369 82.35 194.969 82.58C194.569 82.81 194.249 83.135 194.009 83.555C193.769 83.965 193.649 84.455 193.649 85.025C193.649 85.585 193.769 86.08 194.009 86.51C194.249 86.93 194.569 87.255 194.969 87.485C195.369 87.715 195.824 87.83 196.334 87.83ZM203.911 89L200.956 81.05H202.321L204.946 88.25H204.301L207.031 81.05H208.246L210.916 88.25H210.286L212.971 81.05H214.261L211.291 89H209.911L207.406 82.43H207.826L205.291 89H203.911ZM219.043 89.09C218.193 89.09 217.443 88.915 216.793 88.565C216.153 88.215 215.653 87.735 215.293 87.125C214.943 86.515 214.768 85.815 214.768 85.025C214.768 84.235 214.938 83.535 215.278 82.925C215.628 82.315 216.103 81.84 216.703 81.5C217.313 81.15 217.998 80.975 218.758 80.975C219.528 80.975 220.208 81.145 220.798 81.485C221.388 81.825 221.848 82.305 222.178 82.925C222.518 83.535 222.688 84.25 222.688 85.07C222.688 85.13 222.683 85.2 222.673 85.28C222.673 85.36 222.668 85.435 222.658 85.505H215.893V84.47H221.908L221.323 84.83C221.333 84.32 221.228 83.865 221.008 83.465C220.788 83.065 220.483 82.755 220.093 82.535C219.713 82.305 219.268 82.19 218.758 82.19C218.258 82.19 217.813 82.305 217.423 82.535C217.033 82.755 216.728 83.07 216.508 83.48C216.288 83.88 216.178 84.34 216.178 84.86V85.1C216.178 85.63 216.298 86.105 216.538 86.525C216.788 86.935 217.133 87.255 217.573 87.485C218.013 87.715 218.518 87.83 219.088 87.83C219.558 87.83 219.983 87.75 220.363 87.59C220.753 87.43 221.093 87.19 221.383 86.87L222.178 87.8C221.818 88.22 221.368 88.54 220.828 88.76C220.298 88.98 219.703 89.09 219.043 89.09ZM226.967 89.09C226.307 89.09 225.677 89 225.077 88.82C224.487 88.64 224.022 88.42 223.682 88.16L224.282 87.02C224.622 87.25 225.042 87.445 225.542 87.605C226.042 87.765 226.552 87.845 227.072 87.845C227.742 87.845 228.222 87.75 228.512 87.56C228.812 87.37 228.962 87.105 228.962 86.765C228.962 86.515 228.872 86.32 228.692 86.18C228.512 86.04 228.272 85.935 227.972 85.865C227.682 85.795 227.357 85.735 226.997 85.685C226.637 85.625 226.277 85.555 225.917 85.475C225.557 85.385 225.227 85.265 224.927 85.115C224.627 84.955 224.387 84.74 224.207 84.47C224.027 84.19 223.937 83.82 223.937 83.36C223.937 82.88 224.072 82.46 224.342 82.1C224.612 81.74 224.992 81.465 225.482 81.275C225.982 81.075 226.572 80.975 227.252 80.975C227.772 80.975 228.297 81.04 228.827 81.17C229.367 81.29 229.807 81.465 230.147 81.695L229.532 82.835C229.172 82.595 228.797 82.43 228.407 82.34C228.017 82.25 227.627 82.205 227.237 82.205C226.607 82.205 226.137 82.31 225.827 82.52C225.517 82.72 225.362 82.98 225.362 83.3C225.362 83.57 225.452 83.78 225.632 83.93C225.822 84.07 226.062 84.18 226.352 84.26C226.652 84.34 226.982 84.41 227.342 84.47C227.702 84.52 228.062 84.59 228.422 84.68C228.782 84.76 229.107 84.875 229.397 85.025C229.697 85.175 229.937 85.385 230.117 85.655C230.307 85.925 230.402 86.285 230.402 86.735C230.402 87.215 230.262 87.63 229.982 87.98C229.702 88.33 229.307 88.605 228.797 88.805C228.287 88.995 227.677 89.09 226.967 89.09ZM234.932 89.09C234.132 89.09 233.512 88.875 233.072 88.445C232.632 88.015 232.412 87.4 232.412 86.6V79.31H233.852V86.54C233.852 86.97 233.957 87.3 234.167 87.53C234.387 87.76 234.697 87.875 235.097 87.875C235.547 87.875 235.922 87.75 236.222 87.5L236.672 88.535C236.452 88.725 236.187 88.865 235.877 88.955C235.577 89.045 235.262 89.09 234.932 89.09ZM231.062 82.235V81.05H236.132V82.235H231.062ZM242.651 89V80.345C242.651 79.565 242.876 78.945 243.326 78.485C243.786 78.015 244.436 77.78 245.276 77.78C245.586 77.78 245.881 77.82 246.161 77.9C246.451 77.97 246.696 78.085 246.896 78.245L246.461 79.34C246.311 79.22 246.141 79.13 245.951 79.07C245.761 79 245.561 78.965 245.351 78.965C244.931 78.965 244.611 79.085 244.391 79.325C244.171 79.555 244.061 79.9 244.061 80.36V81.425L244.091 82.085V89H242.651ZM241.301 82.235V81.05H246.371V82.235H241.301ZM251.152 89.09C250.302 89.09 249.552 88.915 248.902 88.565C248.262 88.215 247.762 87.735 247.402 87.125C247.052 86.515 246.877 85.815 246.877 85.025C246.877 84.235 247.047 83.535 247.387 82.925C247.737 82.315 248.212 81.84 248.812 81.5C249.422 81.15 250.107 80.975 250.867 80.975C251.637 80.975 252.317 81.145 252.907 81.485C253.497 81.825 253.957 82.305 254.287 82.925C254.627 83.535 254.797 84.25 254.797 85.07C254.797 85.13 254.792 85.2 254.782 85.28C254.782 85.36 254.777 85.435 254.767 85.505H248.002V84.47H254.017L253.432 84.83C253.442 84.32 253.337 83.865 253.117 83.465C252.897 83.065 252.592 82.755 252.202 82.535C251.822 82.305 251.377 82.19 250.867 82.19C250.367 82.19 249.922 82.305 249.532 82.535C249.142 82.755 248.837 83.07 248.617 83.48C248.397 83.88 248.287 84.34 248.287 84.86V85.1C248.287 85.63 248.407 86.105 248.647 86.525C248.897 86.935 249.242 87.255 249.682 87.485C250.122 87.715 250.627 87.83 251.197 87.83C251.667 87.83 252.092 87.75 252.472 87.59C252.862 87.43 253.202 87.19 253.492 86.87L254.287 87.8C253.927 88.22 253.477 88.54 252.937 88.76C252.407 88.98 251.812 89.09 251.152 89.09ZM260.337 89.09C259.487 89.09 258.737 88.915 258.087 88.565C257.447 88.215 256.947 87.735 256.587 87.125C256.237 86.515 256.062 85.815 256.062 85.025C256.062 84.235 256.232 83.535 256.572 82.925C256.922 82.315 257.397 81.84 257.997 81.5C258.607 81.15 259.292 80.975 260.052 80.975C260.822 80.975 261.502 81.145 262.092 81.485C262.682 81.825 263.142 82.305 263.472 82.925C263.812 83.535 263.982 84.25 263.982 85.07C263.982 85.13 263.977 85.2 263.967 85.28C263.967 85.36 263.962 85.435 263.952 85.505H257.187V84.47H263.202L262.617 84.83C262.627 84.32 262.522 83.865 262.302 83.465C262.082 83.065 261.777 82.755 261.387 82.535C261.007 82.305 260.562 82.19 260.052 82.19C259.552 82.19 259.107 82.305 258.717 82.535C258.327 82.755 258.022 83.07 257.802 83.48C257.582 83.88 257.472 84.34 257.472 84.86V85.1C257.472 85.63 257.592 86.105 257.832 86.525C258.082 86.935 258.427 87.255 258.867 87.485C259.307 87.715 259.812 87.83 260.382 87.83C260.852 87.83 261.277 87.75 261.657 87.59C262.047 87.43 262.387 87.19 262.677 86.87L263.472 87.8C263.112 88.22 262.662 88.54 262.122 88.76C261.592 88.98 260.997 89.09 260.337 89.09ZM268.261 89.09C267.601 89.09 266.971 89 266.371 88.82C265.781 88.64 265.316 88.42 264.976 88.16L265.576 87.02C265.916 87.25 266.336 87.445 266.836 87.605C267.336 87.765 267.846 87.845 268.366 87.845C269.036 87.845 269.516 87.75 269.806 87.56C270.106 87.37 270.256 87.105 270.256 86.765C270.256 86.515 270.166 86.32 269.986 86.18C269.806 86.04 269.566 85.935 269.266 85.865C268.976 85.795 268.651 85.735 268.291 85.685C267.931 85.625 267.571 85.555 267.211 85.475C266.851 85.385 266.521 85.265 266.221 85.115C265.921 84.955 265.681 84.74 265.501 84.47C265.321 84.19 265.231 83.82 265.231 83.36C265.231 82.88 265.366 82.46 265.636 82.1C265.906 81.74 266.286 81.465 266.776 81.275C267.276 81.075 267.866 80.975 268.546 80.975C269.066 80.975 269.591 81.04 270.121 81.17C270.661 81.29 271.101 81.465 271.441 81.695L270.826 82.835C270.466 82.595 270.091 82.43 269.701 82.34C269.311 82.25 268.921 82.205 268.531 82.205C267.901 82.205 267.431 82.31 267.121 82.52C266.811 82.72 266.656 82.98 266.656 83.3C266.656 83.57 266.746 83.78 266.926 83.93C267.116 84.07 267.356 84.18 267.646 84.26C267.946 84.34 268.276 84.41 268.636 84.47C268.996 84.52 269.356 84.59 269.716 84.68C270.076 84.76 270.401 84.875 270.691 85.025C270.991 85.175 271.231 85.385 271.411 85.655C271.601 85.925 271.696 86.285 271.696 86.735C271.696 87.215 271.556 87.63 271.276 87.98C270.996 88.33 270.601 88.605 270.091 88.805C269.581 88.995 268.971 89.09 268.261 89.09ZM280.254 89.09C279.454 89.09 278.834 88.875 278.394 88.445C277.954 88.015 277.734 87.4 277.734 86.6V79.31H279.174V86.54C279.174 86.97 279.279 87.3 279.489 87.53C279.709 87.76 280.019 87.875 280.419 87.875C280.869 87.875 281.244 87.75 281.544 87.5L281.994 88.535C281.774 88.725 281.509 88.865 281.199 88.955C280.899 89.045 280.584 89.09 280.254 89.09ZM276.384 82.235V81.05H281.454V82.235H276.384ZM286.876 89.09C286.076 89.09 285.366 88.915 284.746 88.565C284.126 88.215 283.636 87.735 283.276 87.125C282.916 86.505 282.736 85.805 282.736 85.025C282.736 84.235 282.916 83.535 283.276 82.925C283.636 82.315 284.126 81.84 284.746 81.5C285.366 81.15 286.076 80.975 286.876 80.975C287.666 80.975 288.371 81.15 288.991 81.5C289.621 81.84 290.111 82.315 290.461 82.925C290.821 83.525 291.001 84.225 291.001 85.025C291.001 85.815 290.821 86.515 290.461 87.125C290.111 87.735 289.621 88.215 288.991 88.565C288.371 88.915 287.666 89.09 286.876 89.09ZM286.876 87.83C287.386 87.83 287.841 87.715 288.241 87.485C288.651 87.255 288.971 86.93 289.201 86.51C289.431 86.08 289.546 85.585 289.546 85.025C289.546 84.455 289.431 83.965 289.201 83.555C288.971 83.135 288.651 82.81 288.241 82.58C287.841 82.35 287.386 82.235 286.876 82.235C286.366 82.235 285.911 82.35 285.511 82.58C285.111 82.81 284.791 83.135 284.551 83.555C284.311 83.965 284.191 84.455 284.191 85.025C284.191 85.585 284.311 86.08 284.551 86.51C284.791 86.93 285.111 87.255 285.511 87.485C285.911 87.715 286.366 87.83 286.876 87.83ZM29.575 107V96.5H30.805L35.515 104.435H34.855L39.505 96.5H40.735L40.75 107H39.31L39.295 98.765H39.64L35.5 105.725H34.81L30.64 98.765H31.015V107H29.575ZM48.6412 107.12C47.8412 107.12 47.0962 106.985 46.4062 106.715C45.7262 106.445 45.1362 106.07 44.6362 105.59C44.1362 105.1 43.7462 104.53 43.4662 103.88C43.1862 103.23 43.0462 102.52 43.0462 101.75C43.0462 100.98 43.1862 100.27 43.4662 99.62C43.7462 98.97 44.1362 98.405 44.6362 97.925C45.1362 97.435 45.7262 97.055 46.4062 96.785C47.0862 96.515 47.8312 96.38 48.6412 96.38C49.4412 96.38 50.1762 96.515 50.8462 96.785C51.5262 97.045 52.1162 97.42 52.6162 97.91C53.1262 98.39 53.5162 98.955 53.7862 99.605C54.0662 100.255 54.2062 100.97 54.2062 101.75C54.2062 102.53 54.0662 103.245 53.7862 103.895C53.5162 104.545 53.1262 105.115 52.6162 105.605C52.1162 106.085 51.5262 106.46 50.8462 106.73C50.1762 106.99 49.4412 107.12 48.6412 107.12ZM48.6412 105.785C49.2212 105.785 49.7562 105.685 50.2462 105.485C50.7462 105.285 51.1762 105.005 51.5362 104.645C51.9062 104.275 52.1912 103.845 52.3912 103.355C52.6012 102.865 52.7062 102.33 52.7062 101.75C52.7062 101.17 52.6012 100.635 52.3912 100.145C52.1912 99.655 51.9062 99.23 51.5362 98.87C51.1762 98.5 50.7462 98.215 50.2462 98.015C49.7562 97.815 49.2212 97.715 48.6412 97.715C48.0512 97.715 47.5062 97.815 47.0062 98.015C46.5162 98.215 46.0862 98.5 45.7162 98.87C45.3462 99.23 45.0562 99.655 44.8462 100.145C44.6462 100.635 44.5462 101.17 44.5462 101.75C44.5462 102.33 44.6462 102.865 44.8462 103.355C45.0562 103.845 45.3462 104.275 45.7162 104.645C46.0862 105.005 46.5162 105.285 47.0062 105.485C47.5062 105.685 48.0512 105.785 48.6412 105.785ZM56.4988 107V96.5H57.7288L64.6738 105.125H64.0288V96.5H65.5288V107H64.2988L57.3538 98.375H57.9988V107H56.4988ZM68.6717 107V96.5H70.1717V107H68.6717ZM77.1336 107V95.87H78.5736V107H77.1336ZM84.728 107.09C83.928 107.09 83.218 106.915 82.598 106.565C81.978 106.215 81.488 105.735 81.128 105.125C80.768 104.505 80.588 103.805 80.588 103.025C80.588 102.235 80.768 101.535 81.128 100.925C81.488 100.315 81.978 99.84 82.598 99.5C83.218 99.15 83.928 98.975 84.728 98.975C85.518 98.975 86.223 99.15 86.843 99.5C87.473 99.84 87.963 100.315 88.313 100.925C88.673 101.525 88.853 102.225 88.853 103.025C88.853 103.815 88.673 104.515 88.313 105.125C87.963 105.735 87.473 106.215 86.843 106.565C86.223 106.915 85.518 107.09 84.728 107.09ZM84.728 105.83C85.238 105.83 85.693 105.715 86.093 105.485C86.503 105.255 86.823 104.93 87.053 104.51C87.283 104.08 87.398 103.585 87.398 103.025C87.398 102.455 87.283 101.965 87.053 101.555C86.823 101.135 86.503 100.81 86.093 100.58C85.693 100.35 85.238 100.235 84.728 100.235C84.218 100.235 83.763 100.35 83.363 100.58C82.963 100.81 82.643 101.135 82.403 101.555C82.163 101.965 82.043 102.455 82.043 103.025C82.043 103.585 82.163 104.08 82.403 104.51C82.643 104.93 82.963 105.255 83.363 105.485C83.763 105.715 84.218 105.83 84.728 105.83ZM94.3095 107.09C93.4995 107.09 92.7745 106.915 92.1345 106.565C91.5045 106.215 91.0095 105.735 90.6495 105.125C90.2895 104.515 90.1095 103.815 90.1095 103.025C90.1095 102.235 90.2895 101.535 90.6495 100.925C91.0095 100.315 91.5045 99.84 92.1345 99.5C92.7745 99.15 93.4995 98.975 94.3095 98.975C95.0295 98.975 95.6695 99.12 96.2295 99.41C96.7995 99.69 97.2395 100.11 97.5495 100.67L96.4545 101.375C96.1945 100.985 95.8745 100.7 95.4945 100.52C95.1245 100.33 94.7245 100.235 94.2945 100.235C93.7745 100.235 93.3095 100.35 92.8995 100.58C92.4895 100.81 92.1645 101.135 91.9245 101.555C91.6845 101.965 91.5645 102.455 91.5645 103.025C91.5645 103.595 91.6845 104.09 91.9245 104.51C92.1645 104.93 92.4895 105.255 92.8995 105.485C93.3095 105.715 93.7745 105.83 94.2945 105.83C94.7245 105.83 95.1245 105.74 95.4945 105.56C95.8745 105.37 96.1945 105.08 96.4545 104.69L97.5495 105.38C97.2395 105.93 96.7995 106.355 96.2295 106.655C95.6695 106.945 95.0295 107.09 94.3095 107.09ZM100.481 105.08L100.511 103.235L105.086 99.05H106.826L103.316 102.5L102.536 103.16L100.481 105.08ZM99.3113 107V95.87H100.751V107H99.3113ZM105.386 107L102.266 103.13L103.196 101.975L107.156 107H105.386ZM111.772 107.09C110.922 107.09 110.172 106.915 109.522 106.565C108.882 106.215 108.382 105.735 108.022 105.125C107.672 104.515 107.497 103.815 107.497 103.025C107.497 102.235 107.667 101.535 108.007 100.925C108.357 100.315 108.832 99.84 109.432 99.5C110.042 99.15 110.727 98.975 111.487 98.975C112.257 98.975 112.937 99.145 113.527 99.485C114.117 99.825 114.577 100.305 114.907 100.925C115.247 101.535 115.417 102.25 115.417 103.07C115.417 103.13 115.412 103.2 115.402 103.28C115.402 103.36 115.397 103.435 115.387 103.505H108.622V102.47H114.637L114.052 102.83C114.062 102.32 113.957 101.865 113.737 101.465C113.517 101.065 113.212 100.755 112.822 100.535C112.442 100.305 111.997 100.19 111.487 100.19C110.987 100.19 110.542 100.305 110.152 100.535C109.762 100.755 109.457 101.07 109.237 101.48C109.017 101.88 108.907 102.34 108.907 102.86V103.1C108.907 103.63 109.027 104.105 109.267 104.525C109.517 104.935 109.862 105.255 110.302 105.485C110.742 105.715 111.247 105.83 111.817 105.83C112.287 105.83 112.712 105.75 113.092 105.59C113.482 105.43 113.822 105.19 114.112 104.87L114.907 105.8C114.547 106.22 114.097 106.54 113.557 106.76C113.027 106.98 112.432 107.09 111.772 107.09ZM117.417 107V99.05H118.797V101.21L118.662 100.67C118.882 100.12 119.252 99.7 119.772 99.41C120.292 99.12 120.932 98.975 121.692 98.975V100.37C121.632 100.36 121.572 100.355 121.512 100.355C121.462 100.355 121.412 100.355 121.362 100.355C120.592 100.355 119.982 100.585 119.532 101.045C119.082 101.505 118.857 102.17 118.857 103.04V107H117.417ZM125.834 107.09C125.174 107.09 124.544 107 123.944 106.82C123.354 106.64 122.889 106.42 122.549 106.16L123.149 105.02C123.489 105.25 123.909 105.445 124.409 105.605C124.909 105.765 125.419 105.845 125.939 105.845C126.609 105.845 127.089 105.75 127.379 105.56C127.679 105.37 127.829 105.105 127.829 104.765C127.829 104.515 127.739 104.32 127.559 104.18C127.379 104.04 127.139 103.935 126.839 103.865C126.549 103.795 126.224 103.735 125.864 103.685C125.504 103.625 125.144 103.555 124.784 103.475C124.424 103.385 124.094 103.265 123.794 103.115C123.494 102.955 123.254 102.74 123.074 102.47C122.894 102.19 122.804 101.82 122.804 101.36C122.804 100.88 122.939 100.46 123.209 100.1C123.479 99.74 123.859 99.465 124.349 99.275C124.849 99.075 125.439 98.975 126.119 98.975C126.639 98.975 127.164 99.04 127.694 99.17C128.234 99.29 128.674 99.465 129.014 99.695L128.399 100.835C128.039 100.595 127.664 100.43 127.274 100.34C126.884 100.25 126.494 100.205 126.104 100.205C125.474 100.205 125.004 100.31 124.694 100.52C124.384 100.72 124.229 100.98 124.229 101.3C124.229 101.57 124.319 101.78 124.499 101.93C124.689 102.07 124.929 102.18 125.219 102.26C125.519 102.34 125.849 102.41 126.209 102.47C126.569 102.52 126.929 102.59 127.289 102.68C127.649 102.76 127.974 102.875 128.264 103.025C128.564 103.175 128.804 103.385 128.984 103.655C129.174 103.925 129.269 104.285 129.269 104.735C129.269 105.215 129.129 105.63 128.849 105.98C128.569 106.33 128.174 106.605 127.664 106.805C127.154 106.995 126.544 107.09 125.834 107.09ZM131.414 107.09C131.134 107.09 130.894 106.995 130.694 106.805C130.494 106.605 130.394 106.355 130.394 106.055C130.394 105.755 130.494 105.51 130.694 105.32C130.894 105.13 131.134 105.035 131.414 105.035C131.684 105.035 131.914 105.13 132.104 105.32C132.304 105.51 132.404 105.755 132.404 106.055C132.404 106.355 132.304 106.605 132.104 106.805C131.914 106.995 131.684 107.09 131.414 107.09Z" fill="white"/>
</g>
<defs>
<filter id="filter0_b_56_324" x="-22.6848" y="-20" width="446.685" height="256" filterUnits="userSpaceOnUse" color-interpolation-filters="sRGB">
<feFlood flood-opacity="0" result="BackgroundImageFix"/>
<feGaussianBlur in="BackgroundImageFix" stdDeviation="10"/>
<feComposite in2="SourceAlpha" operator="in" result="effect1_backgroundBlur_56_324"/>
<feBlend mode="normal" in="SourceGraphic" in2="effect1_backgroundBlur_56_324" result="shape"/>
</filter>
<filter id="filter1_f_56_324" x="-37.3238" y="-201.324" width="437.648" height="437.648" filterUnits="userSpaceOnUse" color-interpolation-filters="sRGB">
<feFlood flood-opacity="0" result="BackgroundImageFix"/>
<feBlend mode="normal" in="SourceGraphic" in2="BackgroundImageFix" result="shape"/>
<feGaussianBlur stdDeviation="78.1619" result="effect1_foregroundBlur_56_324"/>
</filter>
<linearGradient id="paint0_linear_56_324" x1="2.60095" y1="-1.54914e-05" x2="307.776" y2="671.34" gradientUnits="userSpaceOnUse">
<stop stop-color="white"/>
<stop offset="1" stop-color="white" stop-opacity="0"/>
</linearGradient>
<linearGradient id="paint1_linear_56_324" x1="187.784" y1="11.3289" x2="94.7908" y2="80.1007" gradientUnits="userSpaceOnUse">
<stop stop-color="#4FA4F9"/>
<stop offset="1" stop-color="#7A76FB" stop-opacity="0"/>
</linearGradient>
<linearGradient id="paint2_linear_56_324" x1="-43.0571" y1="-54.2001" x2="57.3714" y2="57.6285" gradientUnits="userSpaceOnUse">
<stop offset="0.125941" stop-color="#824BC2"/>
<stop offset="1" stop-color="#C8DDF2" stop-opacity="0"/>
</linearGradient>
<linearGradient id="paint3_linear_56_324" x1="77.9429" y1="20.7999" x2="178.371" y2="132.628" gradientUnits="userSpaceOnUse">
<stop offset="0.167136" stop-color="#3C4E65"/>
<stop offset="1" stop-color="#C8DDF2" stop-opacity="0"/>
</linearGradient>
<linearGradient id="paint4_linear_56_324" x1="31.6037" y1="131.162" x2="58.9132" y2="161.572" gradientUnits="userSpaceOnUse">
<stop offset="0.167136" stop-color="#3C4E65"/>
<stop offset="1" stop-color="#C8DDF2" stop-opacity="0"/>
</linearGradient>
<linearGradient id="paint5_linear_56_324" x1="282.604" y1="45.2763" x2="309.913" y2="75.6858" gradientUnits="userSpaceOnUse">
<stop offset="0.167136" stop-color="#3C4E65"/>
<stop offset="1" stop-color="#C8DDF2" stop-opacity="0"/>
</linearGradient>
<linearGradient id="paint6_linear_56_324" x1="28" y1="34.5" x2="316.771" y2="34.5" gradientUnits="userSpaceOnUse">
<stop stop-color="#7875FC"/>
<stop offset="0.0001" stop-color="#FF8902"/>
<stop offset="0.361804" stop-color="#F586C4"/>
<stop offset="1" stop-color="#F9AE83" stop-opacity="0"/>
</linearGradient>
<clipPath id="clip0_56_324">
<rect width="404" height="147" rx="12" fill="white"/>
</clipPath>
</defs>
</svg>
