<svg width="29" height="26" viewBox="0 0 29 26" fill="none" xmlns="http://www.w3.org/2000/svg">
<path d="M20.0467 10.4436C20.0467 12.7537 19.2457 14.9923 17.7802 16.7781C16.3147 18.5638 14.2754 19.7861 12.0097 20.2368C9.74396 20.6875 7.39209 20.3386 5.35477 19.2496C3.31746 18.1607 1.72076 16.399 0.836725 14.2647C-0.0473073 12.1305 -0.163971 9.75576 0.506611 7.54514C1.17719 5.33452 2.59353 3.42481 4.5143 2.1414C6.43507 0.857982 8.74142 0.280271 11.0404 0.506699C13.3393 0.733126 15.4887 1.74968 17.1222 3.38316L15.0362 5.46913C13.8853 4.31825 12.371 3.60203 10.7512 3.4425C9.13148 3.28297 7.50652 3.69 6.15324 4.59424C4.79995 5.49848 3.80206 6.84398 3.32959 8.40148C2.85713 9.95899 2.93933 11.6321 3.56218 13.1358C4.18503 14.6395 5.30999 15.8807 6.7454 16.648C8.1808 17.4152 9.83783 17.661 11.4341 17.3435C13.0305 17.0259 14.4673 16.1647 15.4998 14.9066C16.5323 13.6485 17.0967 12.0712 17.0967 10.4436H20.0467Z" fill="white"/>
<path d="M8.38066 15.9721C8.28141 13.6642 8.98549 11.3932 10.3729 9.54619C11.7604 7.69916 13.7453 6.39034 15.9895 5.84274C18.2338 5.29514 20.5985 5.54265 22.6807 6.54308C24.7629 7.54352 26.4338 9.23499 27.4087 11.3293C28.3836 13.4236 28.6022 15.7911 28.0272 18.0285C27.4522 20.2659 26.1192 22.2347 24.2554 23.5994C22.3915 24.9642 20.1121 25.6404 17.8056 25.513C15.499 25.3855 13.308 24.4623 11.6058 22.9005L13.6003 20.7268C14.7995 21.8272 16.3432 22.4777 17.9683 22.5675C19.5934 22.6573 21.1994 22.1808 22.5126 21.2193C23.8258 20.2577 24.7649 18.8706 25.1701 17.2942C25.5752 15.7179 25.4212 14.0498 24.7343 12.5742C24.0474 11.0987 22.8702 9.90696 21.4031 9.2021C19.9361 8.49724 18.27 8.32285 16.6888 8.70867C15.1076 9.09448 13.7091 10.0166 12.7316 11.318C11.7541 12.6193 11.258 14.2193 11.3279 15.8454L8.38066 15.9721Z" fill="white"/>
</svg>
